# xmcd
#
# Track frame offsets:
#	150
#	18270
#	34260
#	52210
#	64355
#	76115
#	91095
#	103680
#	120905
#	134540
#	155035
#	166435
#	179865
#	196600
#	214565
#	228805
#	248355
#	262040
#	282480
#	308125
#	323050
#	342880
#
# Disc length: 4793 seconds
#
# Revision: 1
# Processed by: cddbd v1.4PL0 Copyright (c) Steve Scherf et al.
# Submitted via: audiograbber 1.81.03
#
DISCID=3212b716
DTITLE=Classic Country - Vol. 1
DYEAR=2003
DGENRE=Country
TTITLE0=Shania Twain - I´m gonna getch good
TTITLE1=Juke Newton - A little love
TTITLE2=Collin Raye - One boy, one girl
TTITLE3=Elvis - Moody blue
TTITLE4=Tammy Wynette - Stand by your man
TTITLE5=Billy Ry Cyrus - Achy breaky heart
TTITLE6=Lynn Anderson - Rose garden
TTITLE7=Dire Straits - Walk of life
TTITLE8=Glen Campell - Rhinstone cowboy
TTITLE9=Garth Brooks - When you come back to me again
TTITLE10=Don Williams - Some broken hearts never mend
TTITLE11=Randy Newman - Heaven is my home
TTITLE12=Kenny Rogers and Shena Easton - We´ve got tonight
TTITLE13=Cher - Just like Jesse James
TTITLE14=Thom Pace - Don´t kid yourself
TTITLE15=Tina Turner - What you get is what you see
TTITLE16=Bellamy Brothers - Let your love flow
TTITLE17=Pussycat - If you ever come to Amsterdam
TTITLE18=Bon Jovi - Right sight of wrong
TTITLE19=Dolly Parton - Heartbreaker
TTITLE20=Patty Smith and Don Henley - Sometimes love just ain´t enough
TTITLE21=Ronan Keating - If tomorrow never comes
EXTD=
EXTT0=
EXTT1=
EXTT2=
EXTT3=
EXTT4=
EXTT5=
EXTT6=
EXTT7=
EXTT8=
EXTT9=
EXTT10=
EXTT11=
EXTT12=
EXTT13=
EXTT14=
EXTT15=
EXTT16=
EXTT17=
EXTT18=
EXTT19=
EXTT20=
EXTT21=
PLAYORDER=
